# xmcd
#
# Track frame offsets:
#	150
#	21487
#	46217
#	66742
#	87190
#	107620
#	125025
#	146127
#	166550
#	186187
#
# Disc length: 2690 seconds
#
# Revision: 0
# Processed by: cddbd v1.4PL0 Copyright (c) Steve Scherf et al.
# Submitted via: EasyCDDAExtractor 4.5.0.2
#
DISCID=8e0a800a
DTITLE=Michael Bolton - Time, Love and Tenderness
DYEAR=1900
DGENRE=Blues
TTITLE0=Love is a wonderful thing
TTITLE1=Time, love and tenderness
TTITLE2=Missing you now
TTITLE3=Forever isn't long enough
TTITLE4=Now that I found you
TTITLE5=When a man loves a woman
TTITLE6=We're not makin' love anymore
TTITLE7=New love
TTITLE8=Save me
TTITLE9=Steel bars
EXTD=
EXTT0=
EXTT1=
EXTT2=Featuring Kenny G\n
EXTT3=
EXTT4=
EXTT5=
EXTT6=Duet with Patti LaBelle\n
EXTT7=
EXTT8=
EXTT9=
PLAYORDER=
